<?xml version="1.0" encoding="UTF-8"?>
<svg xmlns="http://www.w3.org/2000/svg" viewBox="0 0 719.8 298.37">
  <defs>
    <style>
      .cls-1, .cls-2, .cls-3 {
        fill: #fff;
      }

      .cls-4 {
        fill: none;
        stroke: #fff;
        stroke-miterlimit: 10;
        stroke-width: 3px;
      }

      .cls-2 {
        font-size: 230.24px;
      }

      .cls-2, .cls-3 {
        font-family: Bauhaus93, 'Bauhaus 93';
      }

      .cls-3 {
        font-size: 116.09px;
      }
    </style>
  </defs>
  <g id="Layer_1">
    <text class="cls-3" transform="translate(0 96.76)"><tspan x="0" y="0">my</tspan></text>
    <text class="cls-2" transform="translate(151.14 192.76)"><tspan x="0" y="0">bus</tspan></text>
    <g>
      <path class="cls-1" d="M518.27,141.95v10.26h9.53v5.85h-9.53v25.27c0,3.88,1.89,5.64,6.09,5.64.94,0,2.83-.12,3.4-.21v5.97c-.99.2-3.26.33-5.19.33-9.01,0-12.5-3.19-12.5-11.37v-25.64h-7.31v-5.85h7.31v-10.26h8.21Z"/>
      <rect class="cls-1" x="536.95" y="152.22" width="8.21" height="42.53"/>
      <path class="cls-1" d="M556.24,152.22h7.74v6.79h.19c2.31-4.5,7.31-7.52,13.92-7.52s11.65,2.94,13.78,8.1h.19c2.74-5.07,8.49-8.1,15.38-8.1,9.72,0,15.99,5.48,15.99,13.9v29.36h-8.21v-27.73c0-5.81-3.73-9.24-10.19-9.24s-11.09,4.17-11.09,9.94v27.03h-8.21v-28.5c0-5.11-3.96-8.46-10.05-8.46-6.51,0-11.23,4.42-11.23,10.31v26.66h-8.21v-42.53Z"/>
      <path class="cls-1" d="M674.46,182.56c-1.42,7.44-9.72,12.92-20.43,12.92-14.06,0-22.6-8.46-22.6-21.84s8.68-22.16,22.22-22.16,21.42,8.34,21.42,21.22v2.7h-35.2v.41c0,8.14,5.52,13.5,14.34,13.5,6.23,0,10.8-2.74,12.17-6.75h8.07ZM639.93,169.84h26.66c-.19-7.12-5.33-12.19-13.07-12.19s-13.07,5.11-13.59,12.19Z"/>
      <path class="cls-1" d="M700.79,151.48c10.14,0,17.6,5.23,17.98,12.43h-7.83c-.57-4.09-4.39-6.62-10.43-6.62s-9.96,2.58-9.96,6.3c0,2.94,2.59,4.91,8.16,6.13l7.6,1.6c9.91,2.17,13.49,5.28,13.49,11.53,0,7.4-8.07,12.64-19.53,12.64-10.76,0-18.26-5.07-19.11-12.6h8.21c.9,4.42,4.77,6.79,11.42,6.79s10.76-2.45,10.76-6.3c0-3.03-2.03-4.66-7.55-5.93l-8.63-1.92c-8.63-1.92-12.88-5.77-12.88-11.57,0-7.28,7.5-12.47,18.31-12.47Z"/>
    </g>
    <text/>
  </g>
  <g id="Layer_3">
    <circle class="cls-4" cx="541.04" cy="144.73" r="4.12"/>
  </g>
</svg>